<svg width="477" height="446" viewBox="0 0 477 446" fill="none" xmlns="http://www.w3.org/2000/svg">
<path d="M138.491 269.817H113.071V398.046H138.491V269.817Z" fill="#E6E6E6"/>
<path d="M113.071 269.829H3.39307V398.058H113.071V269.829Z" fill="#F0F0F0"/>
<path d="M103.079 319.155H13.3854V348.708H103.079V319.155Z" fill="#B79A9A"/>
<path d="M103.079 355.307H13.3854V384.861H103.079V355.307Z" fill="#B79A9A"/>
<path d="M103.079 283.015H13.3854V312.568H103.079V283.015Z" fill="#B79A9A"/>
<path d="M48.1519 286.971H68.3004C68.9565 286.968 69.5848 286.706 70.0488 286.242C70.5127 285.778 70.7747 285.15 70.7778 284.494V284.494C70.7717 283.839 70.5087 283.212 70.0454 282.749C69.5821 282.286 68.9555 282.023 68.3004 282.016H48.1519C47.4969 282.02 46.8697 282.282 46.4076 282.746C45.9456 283.211 45.6861 283.839 45.6862 284.494V284.494C45.6861 285.149 45.9456 285.777 46.4076 286.242C46.8697 286.706 47.4969 286.968 48.1519 286.971V286.971Z" fill="#F0F0F0"/>
<path d="M48.1519 359.276H68.3004C68.9585 359.273 69.5887 359.009 70.0529 358.543C70.5172 358.076 70.7779 357.445 70.7779 356.787V356.787C70.7748 356.132 70.5124 355.504 70.0481 355.042C69.5838 354.58 68.9554 354.321 68.3004 354.321H48.1519C47.498 354.321 46.8708 354.581 46.4084 355.043C45.946 355.506 45.6862 356.133 45.6862 356.787C45.6846 357.112 45.7472 357.434 45.8703 357.736C45.9934 358.037 46.1745 358.311 46.4035 358.542C46.6325 358.773 46.9047 358.957 47.2047 359.083C47.5047 359.209 47.8266 359.274 48.1519 359.276V359.276Z" fill="#F0F0F0"/>
<path d="M113.071 263.078H0V269.817H113.071V263.078Z" fill="#B79A9A"/>
<path d="M48.1519 323.124H68.3004C68.9555 323.118 69.5821 322.855 70.0454 322.391C70.5087 321.928 70.7717 321.301 70.7778 320.646V320.646C70.7747 319.99 70.5127 319.362 70.0488 318.898C69.5848 318.434 68.9565 318.172 68.3004 318.169H48.1519C47.4969 318.172 46.8697 318.434 46.4076 318.899C45.9456 319.363 45.6861 319.991 45.6862 320.646V320.646C45.6861 321.301 45.9456 321.93 46.4076 322.394C46.8697 322.858 47.4969 323.121 48.1519 323.124V323.124Z" fill="#F0F0F0"/>
<path d="M142.037 263.089H113.071V269.829H142.037V263.089Z" fill="#E0E0E0"/>
<path d="M463.279 420.372H417.356C416.823 420.375 416.308 420.181 415.909 419.828C415.511 419.474 415.258 418.985 415.198 418.456L414.268 410.086C414.204 409.524 414.363 408.959 414.711 408.512C415.059 408.065 415.567 407.772 416.128 407.696H464.19C464.474 407.693 464.756 407.747 465.019 407.854C465.283 407.961 465.522 408.118 465.725 408.318C465.927 408.518 466.088 408.755 466.198 409.017C466.308 409.279 466.365 409.56 466.366 409.844C466.371 409.928 466.371 410.012 466.366 410.095L465.436 418.465C465.379 418.995 465.125 419.483 464.726 419.836C464.327 420.188 463.811 420.38 463.279 420.372V420.372Z" fill="#777777"/>
<path d="M456.434 430.258H424.2C423.352 430.248 422.533 429.948 421.878 429.409C421.223 428.869 420.773 428.122 420.601 427.291L418.304 416.001H462.386L460.098 427.291C459.924 428.133 459.464 428.888 458.796 429.429C458.128 429.97 457.293 430.263 456.434 430.258V430.258Z" fill="#777777"/>
<path d="M440.091 408.164C439.918 407.881 435.83 401.054 434.412 386.878C433.112 373.873 433.948 351.951 445.316 321.372C466.853 263.441 440.353 216.7 440.082 216.234L441.39 215.475C441.458 215.594 448.296 227.511 452.336 246.487C457.673 271.646 455.729 297.805 446.733 321.898C425.233 379.73 441.217 407.107 441.381 407.377L440.091 408.164Z" fill="#82BDBD"/>
<path d="M431.67 212.832C437.094 212.832 441.491 208.435 441.491 203.01C441.491 197.585 437.094 193.187 431.67 193.187C426.245 193.187 421.848 197.585 421.848 203.01C421.848 208.435 426.245 212.832 431.67 212.832Z" fill="#50DCF5"/>
<path d="M462.645 249.1C468.07 249.1 472.467 244.702 472.467 239.278C472.467 233.853 468.07 229.455 462.645 229.455C457.221 229.455 452.824 233.853 452.824 239.278C452.824 244.702 457.221 249.1 462.645 249.1Z" fill="#B79A9A"/>
<path d="M441.491 273.278C446.916 273.278 451.313 268.881 451.313 263.456C451.313 258.031 446.916 253.633 441.491 253.633C436.067 253.633 431.67 258.031 431.67 263.456C431.67 268.881 436.067 273.278 441.491 273.278Z" fill="#50DCF5"/>
<path d="M467.178 293.679C472.603 293.679 477 289.281 477 283.856C477 278.431 472.603 274.034 467.178 274.034C461.754 274.034 457.357 278.431 457.357 283.856C457.357 289.281 461.754 293.679 467.178 293.679Z" fill="#50DCF5"/>
<path d="M433.936 325.413C439.36 325.413 443.758 321.015 443.758 315.59C443.758 310.166 439.36 305.768 433.936 305.768C428.512 305.768 424.115 310.166 424.115 315.59C424.115 321.015 428.512 325.413 433.936 325.413Z" fill="#B79A9A"/>
<path d="M446.024 408.526C446.024 408.526 436.203 384.347 465.667 366.214L446.024 408.526Z" fill="#719E9E"/>
<path d="M433.945 408.087C433.945 408.087 429.475 382.376 394.879 382.596L433.945 408.087Z" fill="#719E9E"/>
<path d="M206.232 445.11C319.824 445.11 411.908 437.845 411.908 428.883C411.908 419.921 319.824 412.656 206.232 412.656C92.6396 412.656 0.555054 419.921 0.555054 428.883C0.555054 437.845 92.6396 445.11 206.232 445.11Z" fill="#777777"/>
<path d="M372.539 71.9522C370.849 66.3317 368.607 60.8924 365.846 55.7136V55.7136L370.014 42.0699L343.079 15.0644L329.412 19.3148C324.265 16.5232 318.843 14.2725 313.232 12.5987V12.5987L306.54 0H268.462L261.757 12.5987C256.128 14.2738 250.687 16.5244 245.519 19.3148V19.3148L231.863 15.1231L204.858 42.1286L209.038 55.7841C206.266 60.9412 204.023 66.3662 202.345 71.9756L189.793 78.68V116.77L202.392 123.474C204.069 129.082 206.316 134.503 209.097 139.654V139.654L204.917 153.298L231.922 180.303L245.578 176.135C250.733 178.908 256.158 181.147 261.769 182.816L268.462 195.438H306.598L313.291 182.839C318.897 181.157 324.318 178.911 329.471 176.135L343.138 180.303L370.144 153.298L365.917 139.677C368.672 134.519 370.906 129.099 372.586 123.498V123.498L385.137 116.77V78.6448L372.539 71.9522ZM287.46 166.859C273.784 166.857 260.417 162.799 249.047 155.2C237.678 147.601 228.817 136.801 223.585 124.166C218.354 111.531 216.986 97.6284 219.655 84.2162C222.325 70.804 228.911 58.4844 238.582 48.8154C248.253 39.1463 260.573 32.562 273.986 29.8949C287.399 27.2279 301.301 28.5979 313.935 33.8317C326.569 39.0655 337.368 47.9282 344.965 59.2989C352.562 70.6696 356.617 84.0378 356.617 97.7131C356.614 116.053 349.327 133.64 336.357 146.607C323.388 159.574 305.799 166.859 287.46 166.859V166.859Z" fill="#407BFF"/>
<path d="M287.46 38.2658C275.701 38.2704 264.207 41.7616 254.432 48.2978C244.657 54.8341 237.04 64.122 232.543 74.9871C228.047 85.8523 226.872 97.8068 229.169 109.339C231.466 120.872 237.131 131.464 245.447 139.777C253.764 148.09 264.359 153.751 275.892 156.043C287.425 158.336 299.379 157.157 310.243 152.656C321.106 148.155 330.391 140.534 336.923 130.756C343.456 120.979 346.942 109.484 346.942 97.7249C346.942 89.9146 345.404 82.1809 342.414 74.9654C339.424 67.75 335.043 61.1942 329.519 55.6726C323.995 50.151 317.438 45.7718 310.221 42.7851C303.004 39.7983 295.27 38.2627 287.46 38.2658V38.2658ZM287.46 149.27C277.265 149.273 267.298 146.252 258.821 140.59C250.343 134.928 243.734 126.879 239.831 117.461C235.927 108.044 234.904 97.6797 236.891 87.6804C238.877 77.6811 243.784 68.4955 250.992 61.2851C258.199 54.0748 267.382 49.1634 277.38 47.1723C287.379 45.1811 297.743 46.1995 307.163 50.0987C316.582 53.9979 324.634 60.6028 330.3 69.0781C335.966 77.5534 338.991 87.5184 338.993 97.7132V97.7132C338.965 111.374 333.528 124.468 323.87 134.13C314.212 143.793 301.121 149.236 287.46 149.27V149.27Z" fill="#407BFF"/>
<path opacity="0.4" d="M372.539 71.9521C370.849 66.3317 368.607 60.8923 365.846 55.7136L370.014 42.0699L343.079 15.0644L329.412 19.3148C324.265 16.5232 318.843 14.2725 313.232 12.5987L306.54 0H268.462L261.757 12.5987C256.128 14.2738 250.687 16.5244 245.519 19.3148L231.863 15.1231L204.858 42.1286L209.038 55.7841C206.266 60.9412 204.023 66.3662 202.345 71.9756L189.793 78.68V116.77L202.392 123.474C204.069 129.082 206.316 134.503 209.097 139.654L204.917 153.298L231.922 180.303L245.578 176.135C250.733 178.908 256.158 181.147 261.769 182.816L268.462 195.438H306.598L313.291 182.839C318.897 181.157 324.318 178.911 329.471 176.135L343.138 180.303L370.143 153.298L365.917 139.677C368.672 134.519 370.906 129.099 372.586 123.498L385.137 116.77V78.6448L372.539 71.9521ZM287.46 166.859C273.784 166.857 260.417 162.799 249.047 155.2C237.678 147.601 228.817 136.801 223.585 124.166C218.354 111.531 216.986 97.6284 219.655 84.2162C222.325 70.804 228.911 58.4844 238.582 48.8154C248.253 39.1463 260.573 32.562 273.986 29.8949C287.399 27.2279 301.301 28.5979 313.935 33.8317C326.569 39.0655 337.368 47.9282 344.965 59.2989C352.562 70.6696 356.617 84.0378 356.617 97.7131C356.614 116.053 349.327 133.64 336.357 146.607C323.388 159.574 305.799 166.859 287.46 166.859Z" fill="white"/>
<path opacity="0.4" d="M287.46 38.2658C275.701 38.2704 264.207 41.7616 254.432 48.2978C244.657 54.8341 237.04 64.122 232.543 74.9871C228.047 85.8523 226.872 97.8068 229.169 109.339C231.466 120.872 237.131 131.464 245.447 139.777C253.764 148.09 264.359 153.751 275.892 156.043C287.425 158.336 299.379 157.157 310.243 152.656C321.106 148.155 330.391 140.534 336.923 130.756C343.456 120.979 346.942 109.484 346.942 97.7249C346.942 89.9146 345.404 82.1809 342.414 74.9654C339.424 67.75 335.043 61.1942 329.519 55.6726C323.995 50.151 317.438 45.7718 310.221 42.7851C303.004 39.7983 295.27 38.2627 287.46 38.2658V38.2658ZM287.46 149.27C277.265 149.273 267.298 146.252 258.821 140.59C250.343 134.928 243.734 126.879 239.831 117.461C235.927 108.044 234.904 97.6797 236.891 87.6804C238.877 77.6811 243.784 68.4955 250.992 61.2851C258.199 54.0748 267.382 49.1634 277.38 47.1723C287.379 45.1811 297.743 46.1995 307.163 50.0987C316.582 53.9979 324.634 60.6028 330.3 69.0781C335.966 77.5534 338.991 87.5184 338.993 97.7132V97.7132C338.965 111.374 333.528 124.468 323.87 134.13C314.212 143.793 301.121 149.236 287.46 149.27V149.27Z" fill="white"/>
<path d="M132.636 147.438C131.751 144.467 130.571 141.592 129.113 138.855L131.332 131.611L116.996 117.298L109.751 119.517C107.015 118.059 104.14 116.879 101.168 115.995L97.6459 109.349H77.3565L73.834 115.995C70.8626 116.879 67.9872 118.059 65.2509 119.517L58.0064 117.298L43.7052 131.611L45.9126 138.855C44.4595 141.594 43.2796 144.469 42.3902 147.438L35.6975 150.961V171.203L42.3902 174.726C43.2745 177.697 44.4546 180.573 45.9126 183.309L43.7052 190.553L58.0064 204.866L65.2509 202.647C67.9895 204.1 70.8644 205.28 73.834 206.17L77.3565 212.804H97.5989L101.121 206.17C104.091 205.28 106.966 204.1 109.704 202.647L116.949 204.866L131.262 190.553L129.043 183.309C130.5 180.572 131.68 177.697 132.565 174.726L139.246 171.203V150.996L132.636 147.438ZM87.4777 189.861C81.7905 189.861 76.231 188.174 71.5023 185.015C66.7735 181.855 63.0879 177.364 60.9115 172.11C58.7351 166.855 58.1657 161.074 59.2752 155.496C60.3847 149.918 63.1234 144.794 67.1448 140.773C71.1663 136.751 76.2899 134.013 81.8679 132.903C87.4458 131.794 93.2275 132.363 98.4818 134.539C103.736 136.716 108.227 140.401 111.387 145.13C114.546 149.859 116.233 155.418 116.233 161.106C116.23 168.731 113.199 176.043 107.807 181.435C102.415 186.827 95.103 189.857 87.4777 189.861Z" fill="#263238"/>
<path d="M132.636 147.438C131.751 144.467 130.571 141.592 129.113 138.855L131.332 131.611L116.996 117.298L109.751 119.517C107.015 118.059 104.14 116.879 101.168 115.995L97.6459 109.349H77.3565L73.834 115.995C70.8626 116.879 67.9872 118.059 65.2509 119.517L58.0064 117.298L43.7052 131.611L45.9126 138.855C44.4595 141.594 43.2796 144.469 42.3902 147.438L35.6975 150.961V171.203L42.3902 174.726C43.2745 177.697 44.4546 180.573 45.9126 183.309L43.7052 190.553L58.0064 204.866L65.2509 202.647C67.9895 204.1 70.8644 205.28 73.834 206.17L77.3565 212.804H97.5989L101.121 206.17C104.091 205.28 106.966 204.1 109.704 202.647L116.949 204.866L131.262 190.553L129.043 183.309C130.5 180.572 131.68 177.697 132.565 174.726L139.246 171.203V150.996L132.636 147.438ZM87.4777 189.861C81.7905 189.861 76.231 188.174 71.5023 185.015C66.7735 181.855 63.0879 177.364 60.9115 172.11C58.7351 166.855 58.1657 161.074 59.2752 155.496C60.3847 149.918 63.1234 144.794 67.1448 140.773C71.1663 136.751 76.2899 134.013 81.8679 132.903C87.4458 131.794 93.2275 132.363 98.4818 134.539C103.736 136.716 108.227 140.401 111.387 145.13C114.546 149.859 116.233 155.418 116.233 161.106C116.23 168.731 113.199 176.043 107.807 181.435C102.415 186.827 95.103 189.857 87.4777 189.861Z" fill="#407BFF"/>
<path d="M87.4777 151.583C85.5921 151.583 83.7487 152.143 82.1809 153.19C80.613 154.238 79.391 155.727 78.6693 157.469C77.9477 159.211 77.7589 161.128 78.1268 162.978C78.4947 164.827 79.4027 166.526 80.7361 167.859C82.0695 169.193 83.7683 170.101 85.6177 170.468C87.4672 170.836 89.3842 170.648 91.1263 169.926C92.8684 169.204 94.3574 167.982 95.4051 166.414C96.4527 164.847 97.0119 163.003 97.0119 161.118C97.0119 158.589 96.0074 156.164 94.2194 154.376C92.4314 152.588 90.0063 151.583 87.4777 151.583Z" fill="#263238"/>
<path opacity="0.4" d="M132.636 147.438C131.751 144.467 130.571 141.592 129.113 138.855L131.332 131.611L116.996 117.298L109.751 119.517C107.015 118.059 104.14 116.879 101.168 115.995L97.6459 109.349H77.3565L73.834 115.995C70.8626 116.879 67.9872 118.059 65.2509 119.517L58.0064 117.298L43.7052 131.611L45.9126 138.855C44.4595 141.594 43.2796 144.469 42.3902 147.438L35.6975 150.961V171.203L42.3902 174.726C43.2745 177.697 44.4546 180.573 45.9126 183.309L43.7052 190.553L58.0064 204.866L65.2509 202.647C67.9895 204.1 70.8644 205.28 73.834 206.17L77.3565 212.804H97.5989L101.121 206.17C104.091 205.28 106.966 204.1 109.704 202.647L116.949 204.866L131.262 190.553L129.043 183.309C130.5 180.572 131.68 177.697 132.565 174.726L139.246 171.203V150.996L132.636 147.438ZM87.4777 189.861C81.7905 189.861 76.231 188.174 71.5023 185.015C66.7735 181.855 63.0879 177.364 60.9115 172.11C58.7351 166.855 58.1657 161.074 59.2752 155.496C60.3847 149.918 63.1234 144.794 67.1448 140.773C71.1663 136.751 76.2899 134.013 81.8679 132.903C87.4458 131.794 93.2275 132.363 98.4818 134.539C103.736 136.716 108.227 140.401 111.387 145.13C114.546 149.859 116.233 155.418 116.233 161.106C116.23 168.731 113.199 176.043 107.807 181.435C102.415 186.827 95.103 189.857 87.4777 189.861Z" fill="white"/>
<path opacity="0.2" d="M87.4777 151.583C85.5921 151.583 83.7487 152.143 82.1809 153.19C80.613 154.238 79.391 155.727 78.6693 157.469C77.9477 159.211 77.7589 161.128 78.1268 162.978C78.4947 164.827 79.4027 166.526 80.7361 167.859C82.0695 169.193 83.7683 170.101 85.6177 170.468C87.4672 170.836 89.3842 170.648 91.1263 169.926C92.8684 169.204 94.3574 167.982 95.4051 166.414C96.4527 164.847 97.0119 163.003 97.0119 161.118C97.0119 158.589 96.0074 156.164 94.2194 154.376C92.4314 152.588 90.0063 151.583 87.4777 151.583Z" fill="white"/>
<path d="M151.046 129.087L143.297 125.893L143.015 122.981C142.29 122.37 141.615 121.702 140.995 120.985L138.107 120.691L134.902 112.954L136.769 110.735C136.686 109.785 136.686 108.831 136.769 107.881L134.902 105.674L138.131 97.9833L141.019 97.7015C141.647 96.962 142.33 96.2712 143.062 95.635L143.344 92.7348L151.093 89.5411L153.301 91.3963C154.25 91.3258 155.204 91.3258 156.154 91.3963L158.361 89.5411L166.111 92.7348L166.381 95.635C167.1 96.2563 167.775 96.9272 168.4 97.6428L171.289 97.9246L174.482 105.662L172.627 107.87C172.709 108.819 172.709 109.774 172.627 110.723L174.482 112.942L171.289 120.68L168.4 120.973C167.781 121.694 167.105 122.366 166.381 122.981L166.111 125.881L158.361 129.075L156.154 127.22C155.208 127.29 154.258 127.29 153.312 127.22L151.046 129.087ZM156.659 125.564L158.666 127.22L164.537 124.789L164.772 122.194L165.054 121.983C165.877 121.316 166.636 120.573 167.32 119.764L167.531 119.494L170.126 119.247L172.557 113.376L171.007 111.31V110.969C171.112 109.904 171.112 108.83 171.007 107.764V107.377L172.662 105.357L170.232 99.4862L167.649 99.2514L167.426 98.9696C166.735 98.1764 165.968 97.4528 165.136 96.8092L164.854 96.5861L164.619 93.9912L158.749 91.5607L156.706 93.2867H156.365C155.3 93.1693 154.225 93.1693 153.16 93.2867H152.807L150.8 91.6194L144.929 94.0499L144.682 96.6448L144.424 96.8679C143.592 97.5243 142.828 98.2639 142.146 99.0753L141.923 99.3571L139.328 99.5919L136.874 105.463L138.541 107.47V107.811C138.424 108.876 138.424 109.951 138.541 111.016V111.369L136.874 113.247L139.316 119.118L141.9 119.365L142.123 119.635C142.8 120.464 143.559 121.224 144.389 121.901L144.659 122.112L144.905 124.719L150.776 127.149L152.796 125.494H153.136C154.202 125.599 155.276 125.599 156.342 125.494L156.659 125.564Z" fill="#263238"/>
<path d="M158.197 117.615C156.554 118.298 154.745 118.478 152.999 118.132C151.253 117.786 149.649 116.931 148.39 115.673C147.131 114.416 146.273 112.813 145.925 111.068C145.578 109.322 145.755 107.513 146.436 105.869C147.117 104.225 148.27 102.819 149.749 101.831C151.229 100.842 152.969 100.315 154.748 100.315C156.528 100.316 158.267 100.844 159.746 101.834C161.226 102.823 162.378 104.229 163.058 105.873V105.873C163.51 106.963 163.744 108.131 163.745 109.31C163.747 110.49 163.515 111.658 163.065 112.749C162.615 113.839 161.954 114.83 161.121 115.665C160.288 116.5 159.298 117.162 158.209 117.615H158.197Z" fill="#263238"/>
<path d="M93.5129 110.734C93.3666 110.734 93.2262 110.676 93.1227 110.573C93.0192 110.469 92.9611 110.329 92.9611 110.182V107.376C92.9611 107.23 93.0192 107.089 93.1227 106.986C93.2262 106.882 93.3666 106.824 93.5129 106.824C93.6593 106.824 93.7996 106.882 93.9031 106.986C94.0066 107.089 94.0648 107.23 94.0648 107.376V110.135C94.0713 110.212 94.0618 110.289 94.0371 110.361C94.0123 110.434 93.9726 110.5 93.9207 110.556C93.8688 110.613 93.8057 110.658 93.7355 110.688C93.6653 110.719 93.5895 110.735 93.5129 110.734V110.734Z" fill="#407BFF"/>
<path d="M93.5129 102.433C93.3666 102.433 93.2262 102.375 93.1227 102.272C93.0192 102.168 92.9611 102.028 92.9611 101.881V96.3393C92.9611 96.1929 93.0192 96.0526 93.1227 95.9491C93.2262 95.8456 93.3666 95.7874 93.5129 95.7874C93.6593 95.7874 93.7996 95.8456 93.9031 95.9491C94.0066 96.0526 94.0648 96.1929 94.0648 96.3393V101.881C94.0648 101.954 94.0505 102.026 94.0228 102.092C93.995 102.159 93.9544 102.22 93.9031 102.272C93.8519 102.323 93.791 102.363 93.7241 102.391C93.6571 102.419 93.5854 102.433 93.5129 102.433V102.433ZM93.5129 91.3491C93.3666 91.3491 93.2262 91.291 93.1227 91.1875C93.0192 91.084 92.9611 90.9436 92.9611 90.7973V85.2553C92.9611 85.1089 93.0192 84.9686 93.1227 84.8651C93.2262 84.7616 93.3666 84.7034 93.5129 84.7034C93.6593 84.7034 93.7996 84.7616 93.9031 84.8651C94.0066 84.9686 94.0648 85.1089 94.0648 85.2553V90.7973C94.0648 90.9436 94.0066 91.084 93.9031 91.1875C93.7996 91.291 93.6593 91.3491 93.5129 91.3491V91.3491ZM93.5129 80.2769C93.3655 80.2738 93.2251 80.2131 93.122 80.1077C93.0188 80.0023 92.961 79.8607 92.9611 79.7133V74.183C92.9611 74.0367 93.0192 73.8963 93.1227 73.7928C93.2262 73.6893 93.3666 73.6312 93.5129 73.6312C93.6593 73.6312 93.7996 73.6893 93.9031 73.7928C94.0066 73.8963 94.0648 74.0367 94.0648 74.183V79.7133C94.0648 79.8607 94.007 80.0023 93.9039 80.1077C93.8007 80.2131 93.6603 80.2738 93.5129 80.2769V80.2769ZM93.5129 69.1576C93.4422 69.1625 93.3712 69.1527 93.3044 69.1289C93.2376 69.1051 93.1764 69.0678 93.1246 69.0193C93.0728 68.9709 93.0316 68.9123 93.0035 68.8472C92.9753 68.7821 92.9609 68.7119 92.9611 68.641V68.5588C92.9607 66.6728 93.2742 64.7999 93.8887 63.0168C93.9391 62.8799 94.0408 62.7679 94.1722 62.7044C94.3036 62.6409 94.4545 62.6308 94.5931 62.6763C94.6628 62.6987 94.7272 62.7349 94.7825 62.7829C94.8377 62.8309 94.8826 62.8897 94.9144 62.9556C94.9463 63.0214 94.9644 63.0931 94.9677 63.1662C94.971 63.2393 94.9594 63.3123 94.9336 63.3808C94.3567 65.0461 94.063 66.7964 94.0648 68.5588C94.0652 68.7098 94.0086 68.8554 93.9063 68.9665C93.804 69.0775 93.6635 69.1458 93.5129 69.1576V69.1576ZM97.0354 58.919C96.9116 58.921 96.7911 58.8794 96.6949 58.8016C96.6378 58.7569 96.5901 58.7014 96.5545 58.6382C96.5189 58.5751 96.4961 58.5055 96.4874 58.4336C96.4786 58.3616 96.4842 58.2886 96.5037 58.2188C96.5231 58.149 96.5562 58.0837 96.6009 58.0267C97.7944 56.5324 99.2314 55.2503 100.851 54.2341C100.913 54.1956 100.982 54.1696 101.053 54.1576C101.125 54.1455 101.199 54.1478 101.269 54.1641C101.34 54.1805 101.407 54.2106 101.466 54.2529C101.526 54.2951 101.576 54.3486 101.615 54.4103C101.653 54.4719 101.679 54.5406 101.691 54.6123C101.703 54.6841 101.701 54.7575 101.685 54.8283C101.668 54.8992 101.638 54.9662 101.596 55.0254C101.554 55.0846 101.5 55.1349 101.438 55.1735C99.9247 56.1132 98.5826 57.3044 97.4698 58.6959C97.3865 58.8085 97.2658 58.8876 97.1293 58.919H97.0354ZM106.252 53.1657C106.116 53.1667 105.983 53.1169 105.881 53.0258C105.779 52.9347 105.714 52.8089 105.7 52.6728C105.685 52.5367 105.721 52.4 105.802 52.2893C105.882 52.1786 106.001 52.1018 106.135 52.0737C107.338 51.8057 108.566 51.6718 109.798 51.6745H111.759C111.832 51.6745 111.904 51.6887 111.97 51.7165C112.037 51.7442 112.098 51.7849 112.149 51.8361C112.201 51.8874 112.241 51.9482 112.269 52.0151C112.297 52.0821 112.311 52.1539 112.311 52.2263C112.311 52.2988 112.297 52.3706 112.269 52.4375C112.241 52.5045 112.201 52.5653 112.149 52.6165C112.098 52.6678 112.037 52.7084 111.97 52.7362C111.904 52.7639 111.832 52.7782 111.759 52.7782H109.951C108.798 52.7794 107.648 52.9053 106.523 53.1539L106.252 53.1657ZM200.408 52.7782H194.96C194.813 52.7782 194.673 52.72 194.57 52.6165C194.466 52.5131 194.408 52.3727 194.408 52.2263C194.408 52.08 194.466 51.9396 194.57 51.8361C194.673 51.7326 194.813 51.6745 194.96 51.6745H200.502C200.574 51.6745 200.646 51.6887 200.713 51.7165C200.78 51.7442 200.841 51.7849 200.892 51.8361C200.943 51.8874 200.984 51.9482 201.012 52.0151C201.039 52.0821 201.054 52.1539 201.054 52.2263C201.054 52.2988 201.039 52.3706 201.012 52.4375C200.984 52.5045 200.943 52.5653 200.892 52.6165C200.841 52.6678 200.78 52.7084 200.713 52.7362C200.646 52.7639 200.574 52.7782 200.502 52.7782H200.408ZM189.324 52.7782H183.923C183.85 52.7782 183.779 52.7639 183.712 52.7362C183.645 52.7084 183.584 52.6678 183.533 52.6165C183.481 52.5653 183.441 52.5045 183.413 52.4375C183.385 52.3706 183.371 52.2988 183.371 52.2263C183.371 52.1539 183.385 52.0821 183.413 52.0151C183.441 51.9482 183.481 51.8874 183.533 51.8361C183.584 51.7849 183.645 51.7442 183.712 51.7165C183.779 51.6887 183.85 51.6745 183.923 51.6745H189.453C189.526 51.6745 189.597 51.6887 189.664 51.7165C189.731 51.7442 189.792 51.7849 189.843 51.8361C189.894 51.8874 189.935 51.9482 189.963 52.0151C189.991 52.0821 190.005 52.1539 190.005 52.2263C190.005 52.2988 189.991 52.3706 189.963 52.4375C189.935 52.5045 189.894 52.5653 189.843 52.6165C189.792 52.6678 189.731 52.7084 189.664 52.7362C189.597 52.7639 189.526 52.7782 189.453 52.7782H189.324ZM178.252 52.7782H172.71C172.563 52.7782 172.423 52.72 172.319 52.6165C172.216 52.5131 172.158 52.3727 172.158 52.2263C172.158 52.08 172.216 51.9396 172.319 51.8361C172.423 51.7326 172.563 51.6745 172.71 51.6745H178.252C178.324 51.6745 178.396 51.6887 178.463 51.7165C178.53 51.7442 178.591 51.7849 178.642 51.8361C178.693 51.8874 178.734 51.9482 178.761 52.0151C178.789 52.0821 178.803 52.1539 178.803 52.2263C178.803 52.2988 178.789 52.3706 178.761 52.4375C178.734 52.5045 178.693 52.5653 178.642 52.6165C178.591 52.6678 178.53 52.7084 178.463 52.7362C178.396 52.7639 178.324 52.7782 178.252 52.7782V52.7782ZM167.168 52.7782H161.626C161.479 52.7782 161.339 52.72 161.235 52.6165C161.132 52.5131 161.074 52.3727 161.074 52.2263C161.074 52.08 161.132 51.9396 161.235 51.8361C161.339 51.7326 161.479 51.6745 161.626 51.6745H167.168C167.24 51.6745 167.312 51.6887 167.379 51.7165C167.446 51.7442 167.507 51.7849 167.558 51.8361C167.609 51.8874 167.65 51.9482 167.677 52.0151C167.705 52.0821 167.719 52.1539 167.719 52.2263C167.719 52.2988 167.705 52.3706 167.677 52.4375C167.65 52.5045 167.609 52.5653 167.558 52.6165C167.507 52.6678 167.446 52.7084 167.379 52.7362C167.312 52.7639 167.24 52.7782 167.168 52.7782V52.7782ZM156.084 52.7782H150.542C150.395 52.7782 150.255 52.72 150.151 52.6165C150.048 52.5131 149.99 52.3727 149.99 52.2263C149.99 52.08 150.048 51.9396 150.151 51.8361C150.255 51.7326 150.395 51.6745 150.542 51.6745H156.084C156.156 51.6745 156.228 51.6887 156.295 51.7165C156.362 51.7442 156.423 51.7849 156.474 51.8361C156.525 51.8874 156.566 51.9482 156.593 52.0151C156.621 52.0821 156.635 52.1539 156.635 52.2263C156.635 52.2988 156.621 52.3706 156.593 52.4375C156.566 52.5045 156.525 52.5653 156.474 52.6165C156.423 52.6678 156.362 52.7084 156.295 52.7362C156.228 52.7639 156.156 52.7782 156.084 52.7782V52.7782ZM145 52.7782H139.469C139.397 52.7782 139.325 52.7639 139.258 52.7362C139.191 52.7084 139.13 52.6678 139.079 52.6165C139.028 52.5653 138.987 52.5045 138.959 52.4375C138.932 52.3706 138.917 52.2988 138.917 52.2263C138.917 52.1539 138.932 52.0821 138.959 52.0151C138.987 51.9482 139.028 51.8874 139.079 51.8361C139.13 51.7849 139.191 51.7442 139.258 51.7165C139.325 51.6887 139.397 51.6745 139.469 51.6745H145C145.072 51.6745 145.144 51.6887 145.211 51.7165C145.278 51.7442 145.339 51.7849 145.39 51.8361C145.441 51.8874 145.482 51.9482 145.509 52.0151C145.537 52.0821 145.551 52.1539 145.551 52.2263C145.551 52.2988 145.537 52.3706 145.509 52.4375C145.482 52.5045 145.441 52.5653 145.39 52.6165C145.339 52.6678 145.278 52.7084 145.211 52.7362C145.144 52.7639 145.072 52.7782 145 52.7782V52.7782ZM133.927 52.7782H128.385C128.239 52.7782 128.099 52.72 127.995 52.6165C127.892 52.5131 127.833 52.3727 127.833 52.2263C127.833 52.08 127.892 51.9396 127.995 51.8361C128.099 51.7326 128.239 51.6745 128.385 51.6745H133.927C134 51.6745 134.072 51.6887 134.138 51.7165C134.205 51.7442 134.266 51.7849 134.318 51.8361C134.369 51.8874 134.409 51.9482 134.437 52.0151C134.465 52.0821 134.479 52.1539 134.479 52.2263C134.479 52.2988 134.465 52.3706 134.437 52.4375C134.409 52.5045 134.369 52.5653 134.318 52.6165C134.266 52.6678 134.205 52.7084 134.138 52.7362C134.072 52.7639 134 52.7782 133.927 52.7782V52.7782ZM122.843 52.7782H117.301C117.155 52.7782 117.015 52.72 116.911 52.6165C116.808 52.5131 116.749 52.3727 116.749 52.2263C116.749 52.08 116.808 51.9396 116.911 51.8361C117.015 51.7326 117.155 51.6745 117.301 51.6745H122.843C122.916 51.6745 122.988 51.6887 123.054 51.7165C123.121 51.7442 123.182 51.7849 123.234 51.8361C123.285 51.8874 123.325 51.9482 123.353 52.0151C123.381 52.0821 123.395 52.1539 123.395 52.2263C123.395 52.2988 123.381 52.3706 123.353 52.4375C123.325 52.5045 123.285 52.5653 123.234 52.6165C123.182 52.6678 123.121 52.7084 123.054 52.7362C122.988 52.7639 122.916 52.7782 122.843 52.7782V52.7782Z" fill="#407BFF"/>
<path d="M208.827 52.7781H206.056C205.909 52.7781 205.769 52.72 205.665 52.6165C205.562 52.513 205.504 52.3726 205.504 52.2263C205.504 52.0799 205.562 51.9396 205.665 51.8361C205.769 51.7326 205.909 51.6744 206.056 51.6744H208.827C208.899 51.6744 208.971 51.6887 209.038 51.7164C209.105 51.7442 209.166 51.7848 209.217 51.8361C209.268 51.8873 209.309 51.9482 209.336 52.0151C209.364 52.0821 209.378 52.1538 209.378 52.2263C209.378 52.2988 209.364 52.3705 209.336 52.4375C209.309 52.5044 209.268 52.5653 209.217 52.6165C209.166 52.6678 209.105 52.7084 209.038 52.7361C208.971 52.7639 208.899 52.7781 208.827 52.7781V52.7781Z" fill="#407BFF"/>
<path d="M93.2313 427.65H99.0199L99.0199 246.748H93.2313L93.2313 427.65Z" fill="#263238"/>
<path d="M331.714 327.883H236.114V314.626H331.714C332.869 314.626 333.977 315.085 334.794 315.902C335.611 316.719 336.07 317.827 336.07 318.982V323.526C336.07 324.682 335.611 325.79 334.794 326.607C333.977 327.424 332.869 327.883 331.714 327.883V327.883Z" fill="#7E5D5A"/>
<path d="M328.039 428.649L321.111 319.159" stroke="#7E5D5A" stroke-width="2.83" stroke-linecap="round" stroke-linejoin="round"/>
<path d="M301.515 434.073L294.587 324.583" stroke="#7E5D5A" stroke-width="2.83" stroke-linecap="round" stroke-linejoin="round"/>
<path d="M231.993 428.649L238.92 319.159" stroke="#7E5D5A" stroke-width="2.83" stroke-linecap="round" stroke-linejoin="round"/>
<path d="M258.517 434.073L265.445 324.583" stroke="#7E5D5A" stroke-width="2.83" stroke-linecap="round" stroke-linejoin="round"/>
<path d="M340.203 319.159H244.603V305.902H340.203C341.358 305.902 342.466 306.361 343.283 307.178C344.1 307.995 344.559 309.103 344.559 310.259V314.803C344.559 315.375 344.446 315.941 344.227 316.47C344.008 316.998 343.687 317.478 343.283 317.883C342.878 318.287 342.398 318.608 341.87 318.827C341.341 319.046 340.775 319.159 340.203 319.159V319.159Z" fill="#B79A9A"/>
<path opacity="0.2" d="M340.203 319.159H244.603V305.902H340.203C341.358 305.902 342.466 306.361 343.283 307.178C344.1 307.995 344.559 309.103 344.559 310.259V314.803C344.559 315.375 344.446 315.941 344.227 316.47C344.008 316.998 343.687 317.478 343.283 317.883C342.878 318.287 342.398 318.608 341.87 318.827C341.341 319.046 340.775 319.159 340.203 319.159Z" fill="black"/>
<path d="M243.922 431.971H249.711L249.711 251.07H243.922L243.922 431.971Z" fill="#263238"/>
<path d="M263.648 264.831C263.648 264.831 197.484 267.32 186.494 293.879C186.494 293.879 188.021 372.982 196.874 398.942L215.813 396.794L212.784 319.898L281.225 264.854L263.648 264.831Z" fill="#263238"/>
<path opacity="0.2" d="M263.648 264.831C263.648 264.831 197.484 267.32 186.494 293.879C186.494 293.879 188.021 372.982 196.874 398.942L215.813 396.794L212.784 319.898L281.225 264.854L263.648 264.831Z" fill="black"/>
<path d="M212.678 416.59H200.854L200.69 408.711L200.572 402.535L212.126 403.24L212.349 408.711L212.678 416.59Z" fill="#B55B52"/>
<path opacity="0.2" d="M212.349 408.711H200.69L200.572 402.535L212.126 403.24L212.349 408.711Z" fill="black"/>
<path d="M217.962 405.048L192.647 405.811L188.032 396.418L217.257 396.148L217.962 405.048Z" fill="#407BFF"/>
<path d="M197.825 418.375C197.825 418.375 198.436 411.435 196.017 412.398C193.598 413.361 196.299 416.907 197.825 418.375Z" stroke="#407BFF" stroke-width="0.94" stroke-miterlimit="10"/>
<path d="M197.825 418.375C197.825 418.375 192.624 414.735 191.297 416.59C189.97 418.445 197.825 418.375 197.825 418.375Z" stroke="#407BFF" stroke-width="0.94" stroke-miterlimit="10"/>
<path d="M201.946 415.005L211.339 415.099C212.002 415.114 212.635 415.375 213.117 415.83C213.598 416.286 213.894 416.904 213.946 417.564L214.604 425.866C214.635 426.226 214.59 426.588 214.472 426.93C214.354 427.271 214.165 427.584 213.918 427.848C213.671 428.111 213.371 428.32 213.038 428.46C212.705 428.6 212.346 428.668 211.985 428.66C206.901 428.508 196.439 428.237 192.729 428.343C187.762 428.484 180.706 428.566 179.696 426.676C179.409 426.169 179.311 425.576 179.421 425.004C179.531 424.432 179.84 423.917 180.295 423.553C180.295 423.553 193.833 422.296 200.056 415.862C200.298 415.6 200.589 415.389 200.914 415.242C201.239 415.095 201.59 415.014 201.946 415.005Z" fill="#263238"/>
<path d="M323.013 264.831C323.013 264.831 324.269 280.247 323.8 292.165C323.26 305.902 293.683 317.996 250.626 310.951C250.626 310.951 247.268 334.164 235.362 355.569C223.457 376.974 204.834 408.711 204.834 408.711L186.518 396.794C186.518 396.794 210.635 329.867 215.226 311.292C219.817 292.717 221.637 283.805 234.764 278.005C247.891 272.204 276.599 264.831 276.599 264.831H323.013Z" fill="#263238"/>
<path d="M197.825 405.213L195.653 408.547L190.874 415.909L181.704 410.567L186.506 403.099L188.373 400.211L197.825 405.213Z" fill="#B55B52"/>
<path opacity="0.2" d="M197.825 405.213L195.653 408.547L186.506 403.099L188.373 400.211L197.825 405.213Z" fill="black"/>
<path d="M209.602 402.535L185.59 388.164L181.704 397.757L204.494 410.919L209.602 402.535Z" fill="#407BFF"/>
<path d="M175.422 410.919C175.422 410.919 177.171 404.907 175.211 404.79C173.25 404.672 175.422 410.919 175.422 410.919Z" stroke="#407BFF" stroke-width="0.94" stroke-miterlimit="10"/>
<path d="M174.964 410.695C174.964 410.695 172.252 404.167 170.068 405.623C167.884 407.079 174.964 410.695 174.964 410.695Z" stroke="#407BFF" stroke-width="0.94" stroke-miterlimit="10"/>
<path d="M182.89 409.909L190.897 414.606C191.46 414.936 191.877 415.468 192.062 416.093C192.247 416.719 192.188 417.392 191.895 417.975L188.267 425.337C188.107 425.659 187.881 425.944 187.605 426.174C187.329 426.404 187.007 426.574 186.662 426.674C186.316 426.773 185.954 426.799 185.598 426.751C185.241 426.703 184.899 426.582 184.592 426.394C180.283 423.74 171.395 418.304 168.154 416.555C163.786 414.206 157.669 410.778 157.751 408.676C157.768 408.099 157.988 407.547 158.372 407.118C158.757 406.688 159.281 406.408 159.853 406.328C159.853 406.328 172.158 411.987 180.788 409.639C181.139 409.542 181.505 409.516 181.866 409.562C182.227 409.609 182.575 409.726 182.89 409.909V409.909Z" fill="#263238"/>
<path d="M248.689 197.457C248.689 197.457 246.224 224.392 247.21 231.32C247.21 231.32 221.472 235.089 208.463 233.304L199.751 231.12L188.854 233.786L191.825 242.416H200.537C200.537 242.416 206.878 244.2 209.649 242.416C209.649 242.416 231.429 246.772 244.298 245.386C257.167 244.001 261.159 239.105 261.734 229.347C262.274 219.954 268.462 199.031 263.519 194.275L248.689 197.457Z" fill="#B55B52"/>
<path d="M337.08 200.487C337.08 200.487 327.205 175.407 317.6 169.748C307.996 164.088 263.519 174.914 263.519 174.914C263.519 174.914 244.439 181.055 243.347 210.866L260.877 218.299L263.648 264.831H323.013L322.696 204.561L337.08 200.487Z" fill="#7BC4D1"/>
<path d="M264.329 125.764C264.329 125.764 258.458 125.024 256.861 120.621C255.264 116.218 261.394 118.437 260.877 110.476C260.36 102.515 269.507 100.613 276.141 104.112C282.775 107.611 293.307 103.795 297.276 108.574C301.244 113.353 299.507 117.803 299.507 117.803C299.507 117.803 310.919 130.719 296.454 139.537C281.988 148.354 264.329 125.764 264.329 125.764Z" fill="#263238"/>
<path d="M298.849 168.679C292.509 178.342 286.802 179.34 279.159 179.329C270.576 179.329 273.452 173.235 273.452 173.235C277.045 171.438 279.664 169.513 280.075 165.086C280.158 164.228 280.177 163.364 280.133 162.503C280.049 160.51 279.706 158.536 279.112 156.632C266.959 157.736 262.674 151.806 261.159 140.617C260.314 133.734 261.566 126.757 264.752 120.597C271.797 128.887 285.053 122.394 285.053 122.394C281.331 133.161 290.442 137.024 290.442 137.024C293.965 134.816 296.783 136.742 296.513 141.028C296.46 142.223 296.051 143.376 295.337 144.336C294.623 145.297 293.638 146.022 292.509 146.417C291.816 165.497 298.849 168.679 298.849 168.679Z" fill="#B55B52"/>
<path d="M268.098 145.02C268.002 145.02 267.91 144.984 267.84 144.918C267.771 144.853 267.728 144.763 267.722 144.668C267.719 144.618 267.726 144.569 267.742 144.522C267.758 144.475 267.783 144.432 267.816 144.395C267.848 144.358 267.888 144.328 267.932 144.306C267.977 144.284 268.025 144.271 268.075 144.268C272.325 144.045 273.945 142.002 274.004 141.979C274.034 141.941 274.071 141.909 274.113 141.885C274.155 141.861 274.202 141.846 274.25 141.841C274.298 141.835 274.347 141.84 274.393 141.853C274.44 141.867 274.483 141.89 274.521 141.92C274.56 141.95 274.593 141.988 274.618 142.03C274.643 142.073 274.659 142.121 274.666 142.17C274.672 142.219 274.669 142.269 274.656 142.317C274.644 142.364 274.621 142.409 274.591 142.448C274.521 142.542 272.736 144.797 268.122 145.02H268.098Z" fill="#263238"/>
<path d="M268.098 140.394L267.405 133.267L264.329 139.748C264.847 140.174 265.467 140.458 266.128 140.572C266.789 140.685 267.468 140.624 268.098 140.394Z" fill="#A02724"/>
<path d="M272.842 133.267C272.842 134.159 273.252 134.887 273.769 134.887C274.286 134.887 274.697 134.159 274.697 133.267C274.697 132.374 274.286 131.646 273.769 131.646C273.252 131.646 272.842 132.374 272.842 133.267Z" fill="#263238"/>
<path d="M262.474 133.267C262.474 134.159 262.885 134.887 263.401 134.887C263.918 134.887 264.329 134.159 264.329 133.267C264.329 132.374 263.918 131.646 263.401 131.646C262.885 131.646 262.474 132.374 262.474 133.267Z" fill="#263238"/>
<path d="M279.03 129.685C278.949 129.687 278.869 129.669 278.797 129.632C278.725 129.595 278.664 129.541 278.619 129.474C278.56 129.38 277.022 127.314 273.452 127.971C273.387 127.985 273.321 127.985 273.256 127.972C273.191 127.959 273.129 127.933 273.074 127.896C273.019 127.859 272.972 127.811 272.937 127.755C272.901 127.7 272.876 127.637 272.865 127.572C272.844 127.442 272.874 127.308 272.948 127.199C273.022 127.09 273.136 127.013 273.264 126.985C277.491 126.21 279.358 128.781 279.441 128.899C279.491 128.974 279.521 129.062 279.526 129.153C279.531 129.243 279.511 129.334 279.469 129.414C279.427 129.495 279.364 129.563 279.287 129.61C279.209 129.658 279.12 129.684 279.03 129.685V129.685Z" fill="#263238"/>
<path d="M261.828 129.028C261.751 129.045 261.671 129.045 261.593 129.028C261.535 128.998 261.483 128.957 261.441 128.907C261.399 128.857 261.367 128.799 261.348 128.737C261.328 128.675 261.321 128.609 261.327 128.544C261.333 128.479 261.351 128.416 261.382 128.358C261.778 127.699 262.361 127.171 263.057 126.843C263.753 126.515 264.531 126.401 265.292 126.515C265.357 126.524 265.42 126.545 265.476 126.578C265.533 126.611 265.582 126.655 265.622 126.708C265.661 126.76 265.689 126.82 265.705 126.884C265.721 126.948 265.724 127.014 265.715 127.079C265.707 127.143 265.687 127.206 265.655 127.262C265.623 127.319 265.58 127.368 265.529 127.408C265.477 127.447 265.418 127.476 265.355 127.492C265.292 127.508 265.227 127.511 265.163 127.501C264.606 127.418 264.036 127.497 263.524 127.731C263.011 127.964 262.577 128.341 262.274 128.816C262.223 128.885 262.155 128.94 262.077 128.977C262 129.014 261.914 129.031 261.828 129.028V129.028Z" fill="#263238"/>
<path d="M261.029 138.82C259.932 138.818 258.859 138.49 257.947 137.879C257.035 137.267 256.325 136.399 255.907 135.384C255.488 134.369 255.38 133.253 255.596 132.176C255.811 131.099 256.341 130.111 257.118 129.335C257.895 128.56 258.885 128.032 259.962 127.819C261.039 127.605 262.155 127.716 263.169 128.137C264.183 128.557 265.05 129.269 265.66 130.182C266.269 131.095 266.595 132.169 266.595 133.267C266.595 133.997 266.451 134.72 266.171 135.395C265.891 136.069 265.481 136.682 264.964 137.198C264.447 137.714 263.834 138.123 263.158 138.401C262.483 138.679 261.76 138.822 261.029 138.82V138.82ZM261.029 128.453C260.077 128.453 259.147 128.735 258.355 129.264C257.563 129.793 256.946 130.545 256.582 131.424C256.217 132.304 256.122 133.272 256.308 134.206C256.494 135.14 256.952 135.997 257.625 136.671C258.299 137.344 259.156 137.802 260.09 137.988C261.024 138.174 261.992 138.079 262.872 137.714C263.751 137.35 264.503 136.733 265.032 135.941C265.561 135.149 265.843 134.219 265.843 133.267C265.828 132 265.314 130.791 264.413 129.9C263.512 129.01 262.296 128.511 261.029 128.511V128.453Z" fill="white"/>
<path d="M274.333 138.82C273.234 138.82 272.16 138.495 271.247 137.884C270.334 137.274 269.622 136.407 269.202 135.392C268.781 134.377 268.671 133.26 268.886 132.183C269.1 131.106 269.629 130.116 270.406 129.34C271.182 128.563 272.172 128.034 273.249 127.82C274.326 127.605 275.443 127.715 276.458 128.136C277.473 128.556 278.34 129.268 278.95 130.181C279.561 131.094 279.886 132.168 279.886 133.267C279.883 134.739 279.297 136.149 278.256 137.19C277.215 138.231 275.805 138.817 274.333 138.82ZM274.333 128.453C273.38 128.45 272.448 128.731 271.655 129.258C270.862 129.786 270.243 130.537 269.877 131.416C269.511 132.296 269.414 133.264 269.598 134.199C269.782 135.133 270.24 135.992 270.913 136.667C271.586 137.341 272.443 137.801 273.377 137.987C274.312 138.174 275.28 138.079 276.16 137.715C277.041 137.351 277.793 136.734 278.323 135.942C278.852 135.15 279.135 134.219 279.135 133.267C279.117 132.003 278.603 130.797 277.705 129.908C276.807 129.019 275.596 128.517 274.333 128.511V128.453Z" fill="white"/>
<path d="M266.595 133.267H268.732" stroke="white" stroke-width="0.94" stroke-miterlimit="10"/>
<path d="M279.487 134.288L289.902 136.789" stroke="white" stroke-width="0.94" stroke-linecap="round" stroke-linejoin="round"/>
<path opacity="0.2" d="M283.139 155.516C282.473 157.961 281.461 160.298 280.133 162.456C280.049 160.463 279.706 158.489 279.112 156.585L283.139 155.516Z" fill="black"/>
<path opacity="0.2" d="M260.877 218.298V210.866L257.871 217.03L260.877 218.298Z" fill="black"/>
<path opacity="0.2" d="M309.875 208.377L307.585 195.003L306.939 209.563L309.875 208.377Z" fill="black"/>
<path d="M326.254 236.439C326.113 246.22 321.71 251.093 308.83 252.478C295.949 253.864 274.18 249.508 274.18 249.508C271.409 251.292 265.069 249.508 265.069 249.508H256.357L253.398 240.878L264.282 238.224L272.994 240.396C286.063 242.181 311.8 238.424 311.8 238.424C311.06 233.234 310.227 216.291 309.874 208.377L325.232 203.833C326.747 214.224 326.383 228.009 326.254 236.439Z" fill="#B55B52"/>
<path d="M99.1138 185.364L109.505 238.33C109.735 239.478 110.356 240.511 111.261 241.254C112.166 241.996 113.301 242.403 114.472 242.404H202.451C203.189 242.404 203.919 242.242 204.588 241.929C205.256 241.616 205.848 241.16 206.322 240.594C206.796 240.027 207.139 239.364 207.328 238.65C207.518 237.936 207.548 237.19 207.418 236.463L198.024 183.497C197.818 182.33 197.207 181.272 196.299 180.51C195.391 179.748 194.243 179.33 193.058 179.329H104.08C103.332 179.327 102.593 179.49 101.917 179.809C101.24 180.127 100.642 180.592 100.167 181.169C99.6916 181.747 99.3506 182.423 99.1685 183.148C98.9863 183.874 98.9676 184.63 99.1138 185.364V185.364Z" fill="#B4AEAE"/>
<path opacity="0.2" d="M194.338 179.329L205.328 242.404C205.713 242.405 206.095 242.321 206.444 242.159C206.794 241.996 207.104 241.758 207.352 241.462C207.599 241.167 207.779 240.82 207.877 240.447C207.976 240.074 207.992 239.684 207.923 239.305L197.625 181.501C197.518 180.891 197.198 180.339 196.724 179.942C196.249 179.545 195.649 179.328 195.03 179.329H194.338Z" fill="black"/>
<path d="M110.538 247.465H245.848C245.849 246.8 245.72 246.141 245.466 245.526C245.212 244.912 244.839 244.353 244.369 243.883C243.899 243.413 243.34 243.04 242.726 242.786C242.111 242.532 241.452 242.403 240.787 242.404H115.622C114.956 242.403 114.296 242.532 113.68 242.786C113.064 243.039 112.504 243.411 112.032 243.881C111.56 244.351 111.185 244.91 110.929 245.524C110.673 246.139 110.54 246.799 110.538 247.465V247.465Z" fill="#B4AEAE"/>
<path opacity="0.2" d="M201.148 247.465H245.848C245.849 246.8 245.719 246.141 245.466 245.526C245.212 244.912 244.839 244.353 244.369 243.883C243.899 243.413 243.34 243.04 242.725 242.786C242.111 242.532 241.452 242.403 240.787 242.404H206.232C205.566 242.403 204.906 242.532 204.29 242.786C203.674 243.039 203.114 243.411 202.642 243.881C202.169 244.351 201.795 244.91 201.538 245.524C201.282 246.139 201.149 246.799 201.148 247.465Z" fill="#B4AEAE"/>
<path opacity="0.4" d="M142.51 212.839C143.462 219.426 148.017 224.228 152.69 223.559C157.364 222.89 160.381 216.996 159.442 210.409C158.502 203.822 153.935 199.019 149.262 199.688C144.589 200.358 141.559 206.24 142.51 212.839Z" fill="white"/>
<path opacity="0.2" d="M110.538 247.465H245.848C245.849 246.8 245.72 246.141 245.466 245.526C245.212 244.912 244.839 244.353 244.369 243.883C243.899 243.413 243.34 243.04 242.726 242.786C242.111 242.532 241.452 242.403 240.787 242.404H115.622C114.956 242.403 114.296 242.532 113.68 242.786C113.064 243.039 112.504 243.411 112.032 243.881C111.56 244.351 111.185 244.91 110.929 245.524C110.673 246.139 110.54 246.799 110.538 247.465V247.465Z" fill="#B4AEAE"/>
<path d="M55.1182 254.016H288.775C288.775 251.799 287.894 249.673 286.326 248.105C284.758 246.537 282.632 245.656 280.415 245.656H63.4899C61.2716 245.656 59.144 246.537 57.5743 248.104C56.0047 249.672 55.1213 251.798 55.1182 254.016V254.016Z" fill="#263238"/>
</svg>
